<svg width="175" height="120" viewBox="0 0 175 120" fill="none" xmlns="http://www.w3.org/2000/svg">
<line x1="34.6914" y1="87.6781" x2="24.0848" y2="98.2847" stroke="#8FC1E5" stroke-width="5" stroke-linecap="round"/>
<line x1="65.7143" y1="87.6781" x2="40.9656" y2="112.427" stroke="#8FC1E5" stroke-width="5" stroke-linecap="round"/>
<line x1="137.57" y1="87.6781" x2="112.821" y2="112.427" stroke="#8FC1E5" stroke-width="5" stroke-linecap="round"/>
<line x1="154.451" y1="87.6781" x2="143.844" y2="98.2847" stroke="#8FC1E5" stroke-width="5" stroke-linecap="round"/>
<path d="M103.643 72.7719H81.9531L71.047 86.0248L85.7519 98.6641L71.047 119.77L103.643 98.6641L88.8154 86.0248L103.643 72.7719Z" fill="#FABF02"/>
<path d="M71.047 119.77L103.643 98.6641L88.861 86.0248L103.643 72.7719H95.3044L81.6596 86.0248L96.4414 98.6641L71.047 119.77Z" fill="#E1AC02"/>
<path d="M8.12964 45.4825H164.286V73.3895L163.113 73.53L16.8471 72.7764L8.88768 70.1228L8.12964 45.4825Z" fill="#BCBCBC"/>
<path d="M47.5478 54.7403C47.5478 67.8077 36.9538 71.0188 23.6881 70.6403C11.5408 77.6438 0.549225 66.0974 0.549225 54.7403C0.549225 41.6729 10.776 31.0797 23.859 31.0797C36.9419 31.0797 47.5478 41.6729 47.5478 54.7403Z" fill="#BCBCBC"/>
<path d="M153.928 44.9984C150.542 57.6355 140.692 53.4196 128.055 50.0335C115.417 46.6474 104.779 45.3733 108.165 32.7362C111.551 20.099 124.54 12.5995 137.178 15.9857C149.815 19.3718 157.314 32.3612 153.928 44.9984Z" fill="#BCBCBC"/>
<path fill-rule="evenodd" clip-rule="evenodd" d="M45.4755 67.0934C28.0492 56.8098 14.9859 48.8859 24.6252 31.159C26.5491 31.0658 28.522 31.2124 30.5107 31.6227C43.3237 34.2666 51.57 46.7845 48.9293 59.5823C48.2687 62.7836 47.0836 65.2469 45.4755 67.0934Z" fill="#939393" fill-opacity="0.5"/>
<path d="M122.594 47.3776C122.594 73.5435 101.382 68.9818 75.2163 68.9818C49.0504 68.9818 27.8387 73.5435 27.8387 47.3776C27.8387 21.2117 49.0504 3.05176e-05 75.2163 3.05176e-05C101.382 3.05176e-05 122.594 21.2117 122.594 47.3776Z" fill="#BCBCBC"/>
<path d="M174.451 57.2322C174.451 67.0867 161.633 83.7636 158.658 64.5599C149.936 64.5599 142.866 65.9542 142.866 57.2322C142.866 48.5102 149.936 41.4397 158.658 41.4397C167.38 41.4397 174.451 47.3777 174.451 57.2322Z" fill="#BCBCBC"/>
<path d="M153.928 44.9984C150.542 57.6355 140.692 53.4196 128.055 50.0335C115.417 46.6474 104.779 45.3733 108.165 32.7362C111.551 20.099 124.54 12.5995 137.178 15.9857C149.815 19.3718 157.314 32.3612 153.928 44.9984Z" fill="#ADADAD"/>
<path d="M174.451 57.2322C174.451 65.903 164.148 79.5951 159.738 69.7398C159.136 68.3945 159.016 66.8664 158.658 64.5599C149.936 64.5599 142.866 65.9542 142.866 57.2322C142.866 48.5102 149.936 41.4397 158.658 41.4397C167.38 41.4397 174.451 47.3777 174.451 57.2322Z" fill="#ADADAD"/>
<rect x="16.4681" y="72.0139" width="0.758041" height="0.758041" fill="#BCBCBC"/>
<ellipse cx="126.384" cy="39.7972" rx="21.2251" ry="22.3622" fill="#BCBCBC"/>
<path d="M171.867 61.4741C171.867 65.4866 169.905 70.1418 167.318 72.1375C164.481 74.3264 160.816 73.2801 156.327 73.2801C147.744 73.2801 140.787 69.8873 140.787 61.4741C140.787 53.0608 147.744 46.2405 156.327 46.2405C164.909 46.2405 171.867 53.0608 171.867 61.4741Z" fill="#BCBCBC"/>
</svg>
